G75*
G70*
%OFA0B0*%
%FSLAX24Y24*%
%IPPOS*%
%LPD*%
%AMOC8*
5,1,8,0,0,1.08239X$1,22.5*
%
%ADD10C,0.0000*%
%ADD11R,0.0276X0.0157*%
%ADD12R,0.0157X0.0276*%
%ADD13R,0.0394X0.0157*%
%ADD14R,0.0157X0.0394*%
%ADD15R,0.0433X0.0394*%
%ADD16R,0.0394X0.0433*%
%ADD17R,0.0472X0.0217*%
%ADD18R,0.0315X0.0315*%
%ADD19R,0.0470X0.0220*%
%ADD20R,0.0220X0.0470*%
%ADD21R,0.0984X0.0394*%
%ADD22R,0.2362X0.0984*%
D10*
X001194Y002069D02*
X020879Y002069D01*
X020879Y021754D01*
X001194Y021754D01*
X001194Y002069D01*
D11*
X014288Y017419D03*
X014288Y017636D03*
X014288Y017852D03*
X014288Y018069D03*
X014288Y018285D03*
X014288Y018502D03*
X014288Y018718D03*
X016099Y018718D03*
X016099Y018502D03*
X016099Y018285D03*
X016099Y018069D03*
X016099Y017852D03*
X016099Y017636D03*
X016099Y017419D03*
D12*
X015843Y017163D03*
X015627Y017163D03*
X015410Y017163D03*
X015194Y017163D03*
X014977Y017163D03*
X014761Y017163D03*
X014544Y017163D03*
X014544Y018974D03*
X014761Y018974D03*
X014977Y018974D03*
X015194Y018974D03*
X015410Y018974D03*
X015627Y018974D03*
X015843Y018974D03*
D13*
X017965Y018453D03*
X017965Y018197D03*
X017965Y017941D03*
X017965Y017685D03*
X019422Y017685D03*
X019422Y017941D03*
X019422Y018197D03*
X019422Y018453D03*
D14*
X019078Y018797D03*
X018822Y018797D03*
X018566Y018797D03*
X018310Y018797D03*
X018310Y017340D03*
X018566Y017340D03*
X018822Y017340D03*
X019078Y017340D03*
D15*
X019028Y016069D03*
X019028Y015569D03*
X018359Y015569D03*
X018359Y016069D03*
X016028Y015569D03*
X015359Y015569D03*
X013028Y016069D03*
X012359Y016069D03*
X012359Y015069D03*
X013028Y015069D03*
X012859Y018069D03*
X013528Y018069D03*
X013528Y019069D03*
X012859Y019069D03*
X018359Y019569D03*
X019028Y019569D03*
X019028Y020569D03*
X018359Y020569D03*
X009528Y012569D03*
X008859Y012569D03*
X004028Y012069D03*
X003359Y012069D03*
X008359Y004569D03*
X009028Y004569D03*
X012859Y004631D03*
X013528Y004631D03*
X017109Y007194D03*
X017778Y007194D03*
D16*
X016350Y008297D03*
X016350Y008966D03*
X016350Y009453D03*
X016350Y010122D03*
X015194Y010403D03*
X015194Y009734D03*
X015194Y007403D03*
X015194Y006734D03*
X007194Y008734D03*
X007194Y009403D03*
X002694Y009734D03*
X002694Y010403D03*
X016694Y016234D03*
X016694Y016903D03*
X017694Y019734D03*
X017694Y020403D03*
D17*
X005206Y010943D03*
X005206Y010195D03*
X004182Y010195D03*
X004182Y010569D03*
X004182Y010943D03*
D18*
X002694Y011274D03*
X002694Y011864D03*
D19*
X008139Y010894D03*
X008139Y010584D03*
X008139Y010274D03*
X008139Y009964D03*
X008139Y009654D03*
X008139Y009344D03*
X008139Y009034D03*
X008139Y008724D03*
X008139Y008414D03*
X008139Y008104D03*
X008139Y007794D03*
X008139Y007484D03*
X008139Y007174D03*
X008139Y006864D03*
X008139Y006554D03*
X008139Y006244D03*
X014249Y006244D03*
X014249Y006554D03*
X014249Y006864D03*
X014249Y007174D03*
X014249Y007484D03*
X014249Y007794D03*
X014249Y008104D03*
X014249Y008414D03*
X014249Y008724D03*
X014249Y009034D03*
X014249Y009344D03*
X014249Y009654D03*
X014249Y009964D03*
X014249Y010274D03*
X014249Y010584D03*
X014249Y010894D03*
D20*
X013519Y011624D03*
X013209Y011624D03*
X012899Y011624D03*
X012589Y011624D03*
X012279Y011624D03*
X011969Y011624D03*
X011659Y011624D03*
X011349Y011624D03*
X011039Y011624D03*
X010729Y011624D03*
X010419Y011624D03*
X010109Y011624D03*
X009799Y011624D03*
X009489Y011624D03*
X009179Y011624D03*
X008869Y011624D03*
X008869Y005514D03*
X009179Y005514D03*
X009489Y005514D03*
X009799Y005514D03*
X010109Y005514D03*
X010419Y005514D03*
X010729Y005514D03*
X011039Y005514D03*
X011349Y005514D03*
X011659Y005514D03*
X011969Y005514D03*
X012279Y005514D03*
X012589Y005514D03*
X012899Y005514D03*
X013209Y005514D03*
X013519Y005514D03*
D21*
X017319Y008694D03*
X017319Y009694D03*
D22*
X019319Y009194D03*
M02*
