G75*
G70*
%OFA0B0*%
%FSLAX24Y24*%
%IPPOS*%
%LPD*%
%AMOC8*
5,1,8,0,0,1.08239X$1,22.5*
%
%ADD10C,0.0000*%
%ADD11R,0.0316X0.0197*%
%ADD12R,0.0197X0.0316*%
%ADD13R,0.0434X0.0197*%
%ADD14R,0.0197X0.0434*%
%ADD15R,0.0473X0.0434*%
%ADD16R,0.0434X0.0473*%
%ADD17R,0.0512X0.0257*%
%ADD18R,0.0355X0.0355*%
%ADD19R,0.0510X0.0260*%
%ADD20R,0.0260X0.0510*%
%ADD21R,0.1024X0.0434*%
%ADD22R,0.2402X0.1024*%
%ADD23C,0.0640*%
%ADD24OC8,0.0640*%
%ADD25C,0.0780*%
%ADD26C,0.0640*%
%ADD27OC8,0.0780*%
D10*
X001194Y002069D02*
X020879Y002069D01*
X020879Y021754D01*
X001194Y021754D01*
X001194Y002069D01*
D11*
X014288Y017419D03*
X014288Y017636D03*
X014288Y017852D03*
X014288Y018069D03*
X014288Y018285D03*
X014288Y018502D03*
X014288Y018718D03*
X016099Y018718D03*
X016099Y018502D03*
X016099Y018285D03*
X016099Y018069D03*
X016099Y017852D03*
X016099Y017636D03*
X016099Y017419D03*
D12*
X015843Y017163D03*
X015627Y017163D03*
X015410Y017163D03*
X015194Y017163D03*
X014977Y017163D03*
X014761Y017163D03*
X014544Y017163D03*
X014544Y018974D03*
X014761Y018974D03*
X014977Y018974D03*
X015194Y018974D03*
X015410Y018974D03*
X015627Y018974D03*
X015843Y018974D03*
D13*
X017965Y018453D03*
X017965Y018197D03*
X017965Y017941D03*
X017965Y017685D03*
X019422Y017685D03*
X019422Y017941D03*
X019422Y018197D03*
X019422Y018453D03*
D14*
X019078Y018797D03*
X018822Y018797D03*
X018566Y018797D03*
X018310Y018797D03*
X018310Y017340D03*
X018566Y017340D03*
X018822Y017340D03*
X019078Y017340D03*
D15*
X019028Y016069D03*
X019028Y015569D03*
X018359Y015569D03*
X018359Y016069D03*
X016028Y015569D03*
X015359Y015569D03*
X013028Y016069D03*
X012359Y016069D03*
X012359Y015069D03*
X013028Y015069D03*
X012859Y018069D03*
X013528Y018069D03*
X013528Y019069D03*
X012859Y019069D03*
X018359Y019569D03*
X019028Y019569D03*
X019028Y020569D03*
X018359Y020569D03*
X009528Y012569D03*
X008859Y012569D03*
X004028Y012069D03*
X003359Y012069D03*
X008359Y004569D03*
X009028Y004569D03*
X012859Y004631D03*
X013528Y004631D03*
X017109Y007194D03*
X017778Y007194D03*
D16*
X016350Y008297D03*
X016350Y008966D03*
X016350Y009453D03*
X016350Y010122D03*
X015194Y010403D03*
X015194Y009734D03*
X015194Y007403D03*
X015194Y006734D03*
X007194Y008734D03*
X007194Y009403D03*
X002694Y009734D03*
X002694Y010403D03*
X016694Y016234D03*
X016694Y016903D03*
X017694Y019734D03*
X017694Y020403D03*
D17*
X005206Y010943D03*
X005206Y010195D03*
X004182Y010195D03*
X004182Y010569D03*
X004182Y010943D03*
D18*
X002694Y011274D03*
X002694Y011864D03*
D19*
X008139Y010894D03*
X008139Y010584D03*
X008139Y010274D03*
X008139Y009964D03*
X008139Y009654D03*
X008139Y009344D03*
X008139Y009034D03*
X008139Y008724D03*
X008139Y008414D03*
X008139Y008104D03*
X008139Y007794D03*
X008139Y007484D03*
X008139Y007174D03*
X008139Y006864D03*
X008139Y006554D03*
X008139Y006244D03*
X014249Y006244D03*
X014249Y006554D03*
X014249Y006864D03*
X014249Y007174D03*
X014249Y007484D03*
X014249Y007794D03*
X014249Y008104D03*
X014249Y008414D03*
X014249Y008724D03*
X014249Y009034D03*
X014249Y009344D03*
X014249Y009654D03*
X014249Y009964D03*
X014249Y010274D03*
X014249Y010584D03*
X014249Y010894D03*
D20*
X013519Y011624D03*
X013209Y011624D03*
X012899Y011624D03*
X012589Y011624D03*
X012279Y011624D03*
X011969Y011624D03*
X011659Y011624D03*
X011349Y011624D03*
X011039Y011624D03*
X010729Y011624D03*
X010419Y011624D03*
X010109Y011624D03*
X009799Y011624D03*
X009489Y011624D03*
X009179Y011624D03*
X008869Y011624D03*
X008869Y005514D03*
X009179Y005514D03*
X009489Y005514D03*
X009799Y005514D03*
X010109Y005514D03*
X010419Y005514D03*
X010729Y005514D03*
X011039Y005514D03*
X011349Y005514D03*
X011659Y005514D03*
X011969Y005514D03*
X012279Y005514D03*
X012589Y005514D03*
X012899Y005514D03*
X013209Y005514D03*
X013519Y005514D03*
D21*
X017319Y008694D03*
X017319Y009694D03*
D22*
X019319Y009194D03*
D23*
X018569Y006194D03*
D24*
X018569Y005194D03*
X017569Y005194D03*
X017569Y006194D03*
X016569Y006194D03*
X016569Y005194D03*
D25*
X004194Y005069D03*
X004194Y006069D03*
X004194Y007069D03*
X004194Y008069D03*
X003194Y008069D03*
X003194Y007069D03*
X002194Y007069D03*
X002194Y008069D03*
X002194Y006069D03*
X003194Y006069D03*
X003194Y005069D03*
X002194Y005069D03*
X002194Y003569D03*
X003194Y003569D03*
X003194Y002569D03*
X002194Y002569D03*
X004194Y002569D03*
X004194Y003569D03*
D26*
X007194Y003369D02*
X007194Y002769D01*
X008194Y002769D02*
X008194Y003369D01*
X009194Y003369D02*
X009194Y002769D01*
X010194Y002769D02*
X010194Y003369D01*
X011194Y003369D02*
X011194Y002769D01*
X012194Y002769D02*
X012194Y003369D01*
X013194Y003369D02*
X013194Y002769D01*
X014194Y002769D02*
X014194Y003369D01*
D27*
X004381Y016756D03*
X004381Y017756D03*
X003381Y017756D03*
X003381Y016756D03*
X003381Y018756D03*
X003381Y019756D03*
X004381Y019756D03*
X004381Y018756D03*
X004381Y020756D03*
X003381Y020756D03*
M02*
