G75*
G70*
%OFA0B0*%
%FSLAX24Y24*%
%IPPOS*%
%LPD*%
%AMOC8*
5,1,8,0,0,1.08239X$1,22.5*
%
%ADD10C,0.0000*%
%ADD11C,0.0640*%
%ADD12OC8,0.0640*%
%ADD13C,0.0780*%
%ADD14C,0.0640*%
%ADD15OC8,0.0780*%
D10*
X001194Y002069D02*
X020879Y002069D01*
X020879Y021754D01*
X001194Y021754D01*
X001194Y002069D01*
D11*
X018569Y006194D03*
D12*
X018569Y005194D03*
X017569Y005194D03*
X017569Y006194D03*
X016569Y006194D03*
X016569Y005194D03*
D13*
X004194Y005069D03*
X004194Y006069D03*
X004194Y007069D03*
X004194Y008069D03*
X003194Y008069D03*
X003194Y007069D03*
X002194Y007069D03*
X002194Y008069D03*
X002194Y006069D03*
X003194Y006069D03*
X003194Y005069D03*
X002194Y005069D03*
X002194Y003569D03*
X003194Y003569D03*
X003194Y002569D03*
X002194Y002569D03*
X004194Y002569D03*
X004194Y003569D03*
D14*
X007194Y003369D02*
X007194Y002769D01*
X008194Y002769D02*
X008194Y003369D01*
X009194Y003369D02*
X009194Y002769D01*
X010194Y002769D02*
X010194Y003369D01*
X011194Y003369D02*
X011194Y002769D01*
X012194Y002769D02*
X012194Y003369D01*
X013194Y003369D02*
X013194Y002769D01*
X014194Y002769D02*
X014194Y003369D01*
D15*
X004381Y016756D03*
X004381Y017756D03*
X003381Y017756D03*
X003381Y016756D03*
X003381Y018756D03*
X003381Y019756D03*
X004381Y019756D03*
X004381Y018756D03*
X004381Y020756D03*
X003381Y020756D03*
M02*
