G75*
G70*
%OFA0B0*%
%FSLAX24Y24*%
%IPPOS*%
%LPD*%
%AMOC8*
5,1,8,0,0,1.08239X$1,22.5*
%
%ADD10C,0.0000*%
%ADD11R,0.0250X0.0625*%
%ADD12R,0.0375X0.0375*%
%ADD13R,0.0063X0.0375*%
%ADD14R,0.0031X0.0375*%
%ADD15R,0.0375X0.0125*%
%ADD16R,0.0906X0.0625*%
%ADD17R,0.0375X0.0031*%
%ADD18R,0.0276X0.0157*%
%ADD19R,0.0157X0.0276*%
%ADD20R,0.0394X0.0157*%
%ADD21R,0.0157X0.0394*%
%ADD22R,0.0433X0.0394*%
%ADD23R,0.0394X0.0433*%
%ADD24R,0.0472X0.0217*%
%ADD25R,0.0315X0.0315*%
%ADD26R,0.0470X0.0220*%
%ADD27R,0.0220X0.0470*%
%ADD28R,0.0984X0.0394*%
%ADD29R,0.2362X0.0984*%
%ADD30C,0.0600*%
%ADD31OC8,0.0600*%
%ADD32C,0.0740*%
%ADD33C,0.0600*%
%ADD34OC8,0.0740*%
%ADD35C,0.0240*%
%ADD36C,0.0160*%
%ADD37C,0.0320*%
%ADD38C,0.0120*%
%ADD39C,0.0100*%
%ADD40C,0.0400*%
%ADD41C,0.0356*%
%ADD42C,0.0150*%
D10*
X001194Y002069D02*
X020879Y002069D01*
X020879Y021754D01*
X001194Y021754D01*
X001194Y002069D01*
D11*
X014194Y018506D03*
X014319Y018506D03*
D12*
X015739Y019015D03*
D13*
X015600Y019015D03*
D14*
X015562Y019015D03*
D15*
X014256Y018131D03*
D16*
X018218Y018685D03*
D17*
X014256Y018006D03*
D18*
X014288Y018069D03*
X014288Y018285D03*
X014288Y018502D03*
X014288Y018718D03*
X014288Y017852D03*
X014288Y017636D03*
X014288Y017419D03*
X016099Y017419D03*
X016099Y017636D03*
X016099Y017852D03*
X016099Y018069D03*
X016099Y018285D03*
X016099Y018502D03*
X016099Y018718D03*
D19*
X015843Y018974D03*
X015627Y018974D03*
X015410Y018974D03*
X015194Y018974D03*
X014977Y018974D03*
X014761Y018974D03*
X014544Y018974D03*
X014544Y017163D03*
X014761Y017163D03*
X014977Y017163D03*
X015194Y017163D03*
X015410Y017163D03*
X015627Y017163D03*
X015843Y017163D03*
D20*
X017965Y017685D03*
X017965Y017941D03*
X017965Y018197D03*
X017965Y018453D03*
X019422Y018453D03*
X019422Y018197D03*
X019422Y017941D03*
X019422Y017685D03*
D21*
X019078Y017340D03*
X018822Y017340D03*
X018566Y017340D03*
X018310Y017340D03*
X018310Y018797D03*
X018566Y018797D03*
X018822Y018797D03*
X019078Y018797D03*
D22*
X019028Y019569D03*
X018359Y019569D03*
X018359Y020569D03*
X019028Y020569D03*
X019028Y016069D03*
X019028Y015569D03*
X018359Y015569D03*
X018359Y016069D03*
X016028Y015569D03*
X015359Y015569D03*
X013028Y016069D03*
X012359Y016069D03*
X012359Y015069D03*
X013028Y015069D03*
X012859Y018069D03*
X013528Y018069D03*
X013528Y019069D03*
X012859Y019069D03*
X009528Y012569D03*
X008859Y012569D03*
X004028Y012069D03*
X003359Y012069D03*
X008359Y004569D03*
X009028Y004569D03*
X012859Y004631D03*
X013528Y004631D03*
X017109Y007194D03*
X017778Y007194D03*
D23*
X016350Y008297D03*
X016350Y008966D03*
X016350Y009453D03*
X016350Y010122D03*
X015194Y010403D03*
X015194Y009734D03*
X015194Y007403D03*
X015194Y006734D03*
X007194Y008734D03*
X007194Y009403D03*
X002694Y009734D03*
X002694Y010403D03*
X016694Y016234D03*
X016694Y016903D03*
X017694Y019734D03*
X017694Y020403D03*
D24*
X005206Y010943D03*
X005206Y010195D03*
X004182Y010195D03*
X004182Y010569D03*
X004182Y010943D03*
D25*
X002694Y011274D03*
X002694Y011864D03*
D26*
X008139Y010894D03*
X008139Y010584D03*
X008139Y010274D03*
X008139Y009964D03*
X008139Y009654D03*
X008139Y009344D03*
X008139Y009034D03*
X008139Y008724D03*
X008139Y008414D03*
X008139Y008104D03*
X008139Y007794D03*
X008139Y007484D03*
X008139Y007174D03*
X008139Y006864D03*
X008139Y006554D03*
X008139Y006244D03*
X014249Y006244D03*
X014249Y006554D03*
X014249Y006864D03*
X014249Y007174D03*
X014249Y007484D03*
X014249Y007794D03*
X014249Y008104D03*
X014249Y008414D03*
X014249Y008724D03*
X014249Y009034D03*
X014249Y009344D03*
X014249Y009654D03*
X014249Y009964D03*
X014249Y010274D03*
X014249Y010584D03*
X014249Y010894D03*
D27*
X013519Y011624D03*
X013209Y011624D03*
X012899Y011624D03*
X012589Y011624D03*
X012279Y011624D03*
X011969Y011624D03*
X011659Y011624D03*
X011349Y011624D03*
X011039Y011624D03*
X010729Y011624D03*
X010419Y011624D03*
X010109Y011624D03*
X009799Y011624D03*
X009489Y011624D03*
X009179Y011624D03*
X008869Y011624D03*
X008869Y005514D03*
X009179Y005514D03*
X009489Y005514D03*
X009799Y005514D03*
X010109Y005514D03*
X010419Y005514D03*
X010729Y005514D03*
X011039Y005514D03*
X011349Y005514D03*
X011659Y005514D03*
X011969Y005514D03*
X012279Y005514D03*
X012589Y005514D03*
X012899Y005514D03*
X013209Y005514D03*
X013519Y005514D03*
D28*
X017319Y008694D03*
X017319Y009694D03*
D29*
X019319Y009194D03*
D30*
X018569Y006194D03*
D31*
X018569Y005194D03*
X017569Y005194D03*
X017569Y006194D03*
X016569Y006194D03*
X016569Y005194D03*
D32*
X004194Y005069D03*
X004194Y006069D03*
X004194Y007069D03*
X004194Y008069D03*
X003194Y008069D03*
X003194Y007069D03*
X002194Y007069D03*
X002194Y008069D03*
X002194Y006069D03*
X003194Y006069D03*
X003194Y005069D03*
X002194Y005069D03*
X002194Y003569D03*
X003194Y003569D03*
X003194Y002569D03*
X002194Y002569D03*
X004194Y002569D03*
X004194Y003569D03*
D33*
X007194Y003369D02*
X007194Y002769D01*
X008194Y002769D02*
X008194Y003369D01*
X009194Y003369D02*
X009194Y002769D01*
X010194Y002769D02*
X010194Y003369D01*
X011194Y003369D02*
X011194Y002769D01*
X012194Y002769D02*
X012194Y003369D01*
X013194Y003369D02*
X013194Y002769D01*
X014194Y002769D02*
X014194Y003369D01*
D34*
X004381Y016756D03*
X004381Y017756D03*
X003381Y017756D03*
X003381Y016756D03*
X003381Y018756D03*
X003381Y019756D03*
X004381Y019756D03*
X004381Y018756D03*
X004381Y020756D03*
X003381Y020756D03*
D35*
X004381Y018756D02*
X006006Y018756D01*
X008194Y016569D01*
X008194Y014819D02*
X009444Y013569D01*
X013444Y013569D01*
X014194Y012819D01*
X014194Y012299D01*
X013519Y011624D01*
X013209Y011624D02*
X013209Y012209D01*
X013569Y012569D01*
X014694Y013069D02*
X014694Y011339D01*
X014249Y010894D01*
X014249Y010584D02*
X013304Y010584D01*
X013069Y010819D01*
X013149Y010274D02*
X012944Y010069D01*
X013149Y010274D02*
X014249Y010274D01*
X014249Y009964D02*
X014589Y009964D01*
X014944Y010319D01*
X015194Y010319D01*
X015194Y009654D02*
X014249Y009654D01*
X013779Y009654D01*
X013444Y009319D01*
X013464Y009964D02*
X012694Y009194D01*
X013464Y009964D02*
X014249Y009964D01*
X014249Y008724D02*
X015164Y008724D01*
X016069Y007819D01*
X017694Y007819D01*
X017778Y007734D01*
X017778Y007194D01*
X018069Y006903D01*
X018069Y005694D02*
X018569Y005194D01*
X015194Y006694D02*
X015194Y006734D01*
X015194Y006819D01*
X015194Y006694D02*
X014714Y007174D01*
X014249Y007174D01*
X013549Y007174D01*
X013444Y007069D01*
X013444Y006256D01*
X014131Y005569D01*
X014131Y004381D01*
X013944Y004194D01*
X012944Y004194D01*
X012819Y004319D01*
X012819Y004591D01*
X012859Y004631D01*
X012506Y004631D01*
X012279Y004859D01*
X012279Y005514D01*
X012279Y005859D01*
X012069Y006069D01*
X009444Y006069D01*
X009194Y005819D01*
X009028Y004569D02*
X009028Y004153D01*
X008819Y003944D01*
X008359Y004569D02*
X008359Y003234D01*
X008194Y003069D01*
X004194Y004631D02*
X004194Y005069D01*
X003194Y003694D02*
X002694Y004194D01*
X001944Y004194D01*
X001569Y004569D01*
X001569Y008819D01*
X001819Y009069D01*
X002694Y009069D01*
X003194Y008569D01*
X003194Y008069D01*
X004194Y008069D02*
X004694Y008069D01*
X006194Y009569D01*
X006194Y010069D01*
X005694Y010569D01*
X004182Y010569D01*
X002859Y010569D01*
X002694Y010403D01*
X002694Y011274D01*
X002694Y011864D02*
X002899Y012069D01*
X003359Y012069D01*
X004028Y012069D02*
X004694Y012069D01*
X005194Y011569D01*
X005194Y010955D01*
X005206Y010943D01*
X005820Y010943D01*
X005944Y010819D01*
X007694Y012569D01*
X008859Y012569D01*
X008859Y012984D01*
X009069Y013194D01*
X008859Y012569D02*
X008859Y012319D01*
X009179Y011999D01*
X009179Y011624D01*
X009489Y011624D02*
X009489Y011024D01*
X009944Y010569D01*
X009944Y008944D01*
X009724Y008724D01*
X008139Y008724D01*
X007789Y008724D01*
X007631Y008881D01*
X007631Y008966D01*
X007194Y009403D01*
X007028Y009569D01*
X006194Y009569D01*
X006694Y010069D02*
X005944Y010819D01*
X004182Y010943D02*
X003820Y010943D01*
X003694Y011069D01*
X004182Y010195D02*
X003721Y009734D01*
X004194Y009262D01*
X004194Y009069D01*
X003721Y009734D02*
X002694Y009734D01*
X002694Y009069D01*
X006194Y008569D02*
X007028Y008569D01*
X007194Y008734D01*
X007514Y008414D01*
X008139Y008414D01*
X008139Y010894D02*
X008139Y011249D01*
X007819Y011569D01*
X008194Y012069D02*
X008639Y011624D01*
X008869Y011624D01*
X009489Y011624D02*
X009489Y012529D01*
X009694Y014069D02*
X006006Y017756D01*
X004381Y017756D01*
X009694Y014069D02*
X013694Y014069D01*
X014694Y013069D01*
X014069Y014819D02*
X013278Y014819D01*
X013028Y015069D01*
X012819Y015569D02*
X012569Y015569D01*
X012359Y015359D01*
X012359Y015069D01*
X011944Y015069D01*
X011569Y014694D01*
X012819Y015569D02*
X013028Y015778D01*
X013028Y016069D01*
X013028Y016028D01*
X013028Y016069D02*
X013028Y016939D01*
X013301Y017212D01*
X012859Y017653D01*
X012859Y018069D01*
X013509Y017419D02*
X013301Y017212D01*
X013509Y017419D02*
X014288Y017419D01*
X014288Y018718D02*
X013879Y018718D01*
X013528Y019069D01*
X011944Y016569D02*
X011944Y016484D01*
X012359Y016069D01*
X014069Y014819D02*
X015819Y014819D01*
X017319Y015694D02*
X017319Y017569D01*
X017319Y015694D02*
X018069Y014944D01*
X019069Y014944D01*
X014849Y008414D02*
X014249Y008414D01*
X014849Y008414D02*
X015069Y008194D01*
X015113Y007484D02*
X014249Y007484D01*
X012609Y007484D01*
X011944Y006819D02*
X012589Y006174D01*
X012589Y005514D01*
X012589Y005174D01*
X012694Y005069D01*
X013444Y005069D01*
X013569Y004944D01*
X013569Y004734D01*
X013528Y004631D01*
X012859Y004631D02*
X012819Y004653D01*
X011969Y011624D02*
X011969Y012294D01*
X011819Y012444D01*
X011444Y012194D02*
X011444Y012819D01*
X011694Y013069D01*
X011819Y013069D01*
X011444Y012194D02*
X011659Y011979D01*
X011659Y011624D01*
X003194Y003694D02*
X003194Y003569D01*
D36*
X007194Y006444D02*
X007319Y006569D01*
X007506Y006569D01*
X007569Y006631D01*
X007569Y006881D01*
X007861Y007174D01*
X008139Y007174D01*
X008139Y007484D02*
X007734Y007484D01*
X007194Y006944D01*
X007194Y007444D02*
X007544Y007794D01*
X008139Y007794D01*
X008139Y008104D02*
X007354Y008104D01*
X007194Y007944D01*
X008139Y009034D02*
X009409Y009034D01*
X009506Y009131D01*
X009219Y009344D02*
X009444Y009569D01*
X009219Y009344D02*
X008139Y009344D01*
X008139Y009654D02*
X008841Y009654D01*
X009131Y009944D01*
X009381Y010194D02*
X009194Y010381D01*
X008819Y010381D01*
X008694Y010256D01*
X008694Y010006D01*
X008651Y009964D01*
X008139Y009964D01*
X009381Y010194D02*
X009569Y010194D01*
X012609Y007484D02*
X012694Y007569D01*
X014249Y009034D02*
X015613Y009034D01*
X016350Y008297D01*
X015572Y009344D02*
X016350Y010122D01*
X015572Y009344D02*
X014249Y009344D01*
X015194Y009654D02*
X015194Y009734D01*
X015113Y007484D02*
X015194Y007403D01*
X018069Y006903D02*
X018069Y005694D01*
X014194Y003069D02*
X013444Y003819D01*
X012819Y003819D01*
X011969Y004669D01*
X011969Y005514D01*
X011659Y005514D02*
X011659Y004604D01*
X013194Y003069D01*
X012194Y003069D02*
X011349Y003914D01*
X011349Y005514D01*
X011039Y005514D02*
X011039Y003224D01*
X011194Y003069D01*
X010319Y004819D02*
X010109Y005029D01*
X010109Y005514D01*
X009819Y005494D02*
X009799Y005514D01*
X009819Y005494D02*
X009819Y004819D01*
X009489Y005029D02*
X009028Y004569D01*
X008944Y004944D02*
X008444Y004944D01*
X008319Y004819D01*
X008319Y004609D01*
X008359Y004569D01*
X008944Y004944D02*
X009179Y005179D01*
X009179Y005514D01*
X009194Y005529D01*
X009194Y005819D01*
X009489Y005514D02*
X009489Y005029D01*
X012899Y011624D02*
X012899Y012489D01*
X012819Y012569D01*
X015359Y015569D02*
X015410Y015620D01*
X015410Y017163D01*
X016069Y017389D02*
X016069Y016319D01*
X016153Y016234D01*
X016694Y016234D01*
X016694Y016903D02*
X016694Y017569D01*
X017319Y017569D01*
X017849Y017569D01*
X017965Y017685D01*
X017963Y017944D02*
X017194Y017944D01*
X016852Y018285D01*
X016944Y018502D02*
X016944Y018944D01*
X017069Y019319D02*
X016694Y019319D01*
X016349Y018974D01*
X015843Y018974D01*
X015627Y018974D01*
X014761Y018974D02*
X014761Y019189D01*
X014381Y019569D01*
X014544Y018974D02*
X014288Y018718D01*
X014288Y018069D02*
X013528Y018069D01*
X014288Y017636D02*
X014288Y017419D01*
X016028Y015569D02*
X016444Y015569D01*
X018069Y016569D02*
X018069Y017099D01*
X018310Y017340D01*
X018566Y017340D02*
X018569Y017338D01*
X018569Y016944D01*
X018444Y016819D01*
X018819Y017069D02*
X018819Y017338D01*
X018822Y017340D01*
X019078Y017340D02*
X019078Y017310D01*
X019444Y016944D01*
X019444Y016484D01*
X019028Y016069D01*
X019069Y016069D01*
X019069Y016819D02*
X018819Y017069D01*
X019078Y017340D02*
X019422Y017685D01*
X019422Y017941D01*
X019422Y018197D01*
X019422Y018453D01*
X019078Y018797D01*
X019078Y019520D01*
X019028Y019569D01*
X018822Y019106D02*
X018359Y019569D01*
X018822Y019106D02*
X018822Y018797D01*
X018566Y018797D02*
X018310Y018797D01*
X017965Y018453D01*
X017944Y018444D02*
X017069Y019319D01*
X017136Y018502D02*
X016944Y018502D01*
X017136Y018502D02*
X017444Y018194D01*
X017963Y018194D01*
X016694Y017569D02*
X016410Y017852D01*
X016099Y017852D01*
X018069Y016569D02*
X018310Y016328D01*
X018310Y016118D01*
X018359Y016069D01*
X003881Y019256D02*
X003381Y019756D01*
D37*
X003381Y020756D02*
X004381Y020756D01*
X010506Y020756D01*
X012069Y019194D01*
X012194Y019069D01*
X012859Y019069D01*
X012859Y018069D01*
X017694Y019734D02*
X018194Y019734D01*
X018359Y019569D01*
X019028Y019569D02*
X019028Y020569D01*
X018359Y020569D02*
X017859Y020569D01*
X017694Y020403D01*
X018359Y016069D02*
X018359Y015569D01*
X019028Y015569D02*
X019028Y016069D01*
X019028Y015569D02*
X019069Y015528D01*
X019069Y014944D01*
X019069Y009819D01*
X019319Y009569D01*
X019069Y009444D02*
X019069Y009819D01*
X018819Y009569D01*
X019006Y009444D02*
X018694Y009131D01*
X018631Y009194D01*
X018069Y009194D01*
X018319Y009444D01*
X018069Y009194D02*
X018319Y008944D01*
X018444Y008819D02*
X018694Y008569D01*
X018944Y008819D01*
X018694Y008569D02*
X018694Y009131D01*
X019006Y009444D02*
X019069Y009444D01*
X018694Y008569D02*
X018694Y008163D01*
X018569Y008038D01*
X018569Y006194D01*
X017109Y007194D02*
X016569Y007194D01*
X016569Y006194D01*
X016569Y007194D02*
X016359Y007403D01*
X015194Y007403D01*
X016350Y008297D02*
X016922Y008297D01*
X017319Y008694D01*
X018069Y009194D02*
X016381Y009194D01*
X016350Y009163D01*
X016350Y008966D01*
X016350Y009453D01*
X016350Y010122D02*
X016890Y010122D01*
X017319Y009694D01*
X015069Y005569D02*
X015444Y005194D01*
X016569Y005194D01*
X012694Y007569D02*
X012694Y009194D01*
X012609Y007484D02*
X011944Y006819D01*
X011819Y006694D01*
X009319Y006694D01*
X007819Y005194D01*
X006194Y005194D01*
X006194Y008569D01*
X002694Y011274D02*
X002302Y011274D01*
X002194Y011381D01*
X002194Y015569D01*
X003381Y016756D01*
X003881Y015006D02*
X005944Y012944D01*
X005944Y012444D01*
D38*
X003881Y015006D02*
X003881Y019256D01*
X009528Y012569D02*
X009489Y012529D01*
X014288Y018069D02*
X014288Y018285D01*
X014288Y018069D02*
X014694Y018069D01*
X014819Y017944D01*
X015694Y017944D01*
X015785Y017852D01*
X016099Y017852D01*
X016099Y017636D02*
X015636Y017636D01*
X015569Y017569D01*
X016069Y017389D02*
X016099Y017419D01*
X016099Y018285D02*
X015602Y018285D01*
X015194Y018694D01*
X015194Y018974D01*
X015194Y019194D01*
X015569Y019569D01*
X015569Y019694D01*
X015694Y019819D01*
X015819Y019444D02*
X016069Y019444D01*
X016194Y019569D01*
X015819Y019444D02*
X015627Y019252D01*
X015627Y018974D01*
X015410Y018974D02*
X015410Y018727D01*
X015636Y018502D01*
X016099Y018502D01*
X016627Y018502D01*
X017965Y018453D02*
X018185Y018453D01*
X018444Y018194D01*
X018444Y017694D01*
X018319Y017569D01*
X018319Y017349D01*
X018310Y017340D01*
X015194Y019569D02*
X015194Y019944D01*
X015194Y019569D02*
X014977Y019352D01*
X014977Y018974D01*
D39*
X014288Y018718D02*
X014288Y018502D01*
X014288Y018285D01*
D40*
X004194Y008069D02*
X004194Y007069D01*
X004194Y006069D01*
X004194Y005069D01*
X004194Y003569D01*
X004194Y002569D01*
X003194Y002569D02*
X003194Y003569D01*
X004194Y004631D02*
X004256Y004569D01*
X008359Y004569D01*
D41*
X008819Y003944D03*
X009819Y004819D03*
X010319Y004819D03*
X007194Y006444D03*
X007194Y006944D03*
X007194Y007444D03*
X007194Y007944D03*
X006194Y008569D03*
X006694Y010069D03*
X007819Y011569D03*
X008194Y012069D03*
X009069Y013194D03*
X008194Y014819D03*
X008194Y016569D03*
X011569Y014694D03*
X011819Y013069D03*
X011819Y012444D03*
X012819Y012569D03*
X013569Y012569D03*
X013069Y010819D03*
X012944Y010069D03*
X013444Y009319D03*
X015069Y008194D03*
X013444Y007069D03*
X015069Y005569D03*
X018694Y008163D03*
X015819Y014819D03*
X016444Y015569D03*
X015569Y017569D03*
X016944Y018944D03*
X016194Y019569D03*
X015694Y019819D03*
X015194Y019944D03*
X014381Y019569D03*
X012069Y019194D03*
X011944Y016569D03*
X014069Y014819D03*
X009569Y010194D03*
X009131Y009944D03*
X009444Y009569D03*
X009506Y009131D03*
X005944Y012444D03*
X003694Y011069D03*
X004194Y009069D03*
X006194Y005194D03*
X018444Y016819D03*
X019069Y016819D03*
D42*
X016944Y018502D02*
X016099Y018502D01*
X016099Y018285D02*
X016852Y018285D01*
M02*
