%
M48
M72
T01C0.0236
T02C0.0400
%
T01
X6194Y5194
X7194Y6444
X7194Y6944
X7194Y7444
X7194Y7944
X6194Y8569
X6694Y10069
X7819Y11569
X8194Y12069
X9069Y13194
X8194Y14819
X8194Y16569
X11569Y14694
X11819Y13069
X11819Y12444
X12819Y12569
X13569Y12569
X13069Y10819
X12944Y10069
X13444Y9319
X15069Y8194
X13444Y7069
X15069Y5569
X18694Y8163
X15819Y14819
X16444Y15569
X15569Y17569
X16944Y18944
X16194Y19569
X15694Y19819
X15194Y19944
X14381Y19569
X12069Y19194
X11944Y16569
X14069Y14819
X9569Y10194
X9131Y9944
X9444Y9569
X9506Y9131
X5944Y12444
X3694Y11069
X4194Y9069
X8819Y3944
X9819Y4819
X10319Y4819
X18444Y16819
X19069Y16819
T02
X2194Y2569
X2194Y3569
X3194Y3569
X3194Y2569
X4194Y2569
X4194Y3569
X4194Y5069
X4194Y6069
X4194Y7069
X4194Y8069
X3194Y8069
X3194Y7069
X2194Y7069
X2194Y8069
X2194Y6069
X3194Y6069
X3194Y5069
X2194Y5069
X7194Y3069
X8194Y3069
X9194Y3069
X10194Y3069
X11194Y3069
X12194Y3069
X13194Y3069
X14194Y3069
X16569Y5194
X16569Y6194
X17569Y6194
X18569Y6194
X18569Y5194
X17569Y5194
X4381Y16756
X4381Y17756
X3381Y17756
X3381Y16756
X3381Y18756
X3381Y19756
X4381Y19756
X4381Y18756
X4381Y20756
X3381Y20756
M30
